<svg width="13" height="14" viewBox="0 0 13 14" fill="none" xmlns="http://www.w3.org/2000/svg">
<path d="M0.0977969 2.92C0.0977969 2.104 0.343797 1.456 0.835797 0.975999C1.3278 0.483999 1.9578 0.237999 2.7258 0.237999C3.4938 0.237999 4.1238 0.483999 4.6158 0.975999C5.1078 1.456 5.3538 2.104 5.3538 2.92C5.3538 3.748 5.1078 4.408 4.6158 4.9C4.1238 5.38 3.4938 5.62 2.7258 5.62C1.9578 5.62 1.3278 5.38 0.835797 4.9C0.343797 4.408 0.0977969 3.748 0.0977969 2.92ZM10.6098 0.436L3.3198 13H1.6998L8.9898 0.436H10.6098ZM2.7258 1.246C2.3178 1.246 1.9938 1.39 1.7538 1.678C1.5258 1.954 1.4118 2.368 1.4118 2.92C1.4118 3.472 1.5258 3.892 1.7538 4.18C1.9938 4.468 2.3178 4.612 2.7258 4.612C3.1338 4.612 3.4578 4.468 3.6978 4.18C3.9378 3.88 4.0578 3.46 4.0578 2.92C4.0578 2.368 3.9378 1.954 3.6978 1.678C3.4578 1.39 3.1338 1.246 2.7258 1.246ZM6.9918 10.516C6.9918 9.688 7.2378 9.034 7.7298 8.554C8.2218 8.062 8.8518 7.816 9.6198 7.816C10.3878 7.816 11.0118 8.062 11.4918 8.554C11.9838 9.034 12.2298 9.688 12.2298 10.516C12.2298 11.332 11.9838 11.986 11.4918 12.478C11.0118 12.97 10.3878 13.216 9.6198 13.216C8.8518 13.216 8.2218 12.976 7.7298 12.496C7.2378 12.004 6.9918 11.344 6.9918 10.516ZM9.6018 8.842C9.1938 8.842 8.8698 8.986 8.6298 9.274C8.3898 9.55 8.2698 9.964 8.2698 10.516C8.2698 11.056 8.3898 11.47 8.6298 11.758C8.8698 12.034 9.1938 12.172 9.6018 12.172C10.0098 12.172 10.3338 12.034 10.5738 11.758C10.8138 11.47 10.9338 11.056 10.9338 10.516C10.9338 9.964 10.8138 9.55 10.5738 9.274C10.3338 8.986 10.0098 8.842 9.6018 8.842Z" fill="#979797" fill-opacity="0.7"/>
</svg>
