<svg width="14" height="18" viewBox="0 0 14 18" fill="none" xmlns="http://www.w3.org/2000/svg">
<path d="M12.7273 7C12.7273 5.48103 12.1239 4.02428 11.0498 2.95021C9.97572 1.87613 8.51897 1.27273 7 1.27273C5.48103 1.27273 4.02428 1.87613 2.95021 2.95021C1.87613 4.02428 1.27273 5.48103 1.27273 7C1.27273 9.34945 3.15255 12.4116 7 16.0796C10.8475 12.4116 12.7273 9.34945 12.7273 7ZM7 17.8182C2.33291 13.5762 0 9.96927 0 7C0 5.14349 0.737498 3.36301 2.05025 2.05025C3.36301 0.737498 5.14348 0 7 0C8.85651 0 10.637 0.737498 11.9497 2.05025C13.2625 3.36301 14 5.14349 14 7C14 9.96927 11.6671 13.5762 7 17.8182Z" fill="#979797"/>
<path d="M6.99993 8.90902C7.50626 8.90902 7.99184 8.70789 8.34986 8.34986C8.70789 7.99184 8.90902 7.50626 8.90902 6.99993C8.90902 6.49361 8.70789 6.00803 8.34986 5.65C7.99184 5.29198 7.50626 5.09084 6.99993 5.09084C6.49361 5.09084 6.00803 5.29198 5.65 5.65C5.29198 6.00803 5.09084 6.49361 5.09084 6.99993C5.09084 7.50626 5.29198 7.99184 5.65 8.34986C6.00803 8.70789 6.49361 8.90902 6.99993 8.90902ZM6.99993 10.1818C6.15606 10.1818 5.34675 9.84653 4.75005 9.24982C4.15334 8.65311 3.81812 7.8438 3.81812 6.99993C3.81812 6.15606 4.15334 5.34675 4.75005 4.75005C5.34675 4.15334 6.15606 3.81812 6.99993 3.81812C7.8438 3.81812 8.65311 4.15334 9.24982 4.75005C9.84653 5.34675 10.1818 6.15606 10.1818 6.99993C10.1818 7.8438 9.84653 8.65311 9.24982 9.24982C8.65311 9.84653 7.8438 10.1818 6.99993 10.1818Z" fill="#979797"/>
</svg>
