<svg width="20" height="17" viewBox="0 0 20 17" fill="none" xmlns="http://www.w3.org/2000/svg">
<path d="M3.57156 4.64526C3.57156 3.9822 3.83496 3.34629 4.30382 2.87743C4.77267 2.40858 5.40858 2.14518 6.07165 2.14518C6.73471 2.14518 7.37062 2.40858 7.83947 2.87743C8.30833 3.34629 8.57173 3.9822 8.57173 4.64526C8.57173 5.30833 8.30833 5.94424 7.83947 6.41309C7.37062 6.88195 6.73471 7.14535 6.07165 7.14535C5.40858 7.14535 4.77267 6.88195 4.30382 6.41309C3.83496 5.94424 3.57156 5.30833 3.57156 4.64526ZM6.07165 0.716553C5.02969 0.716553 4.0304 1.13047 3.29363 1.86725C2.55685 2.60402 2.14293 3.60331 2.14293 4.64526C2.14293 5.68722 2.55685 6.68651 3.29363 7.42328C4.0304 8.16006 5.02969 8.57398 6.07165 8.57398C7.1136 8.57398 8.11289 8.16006 8.84966 7.42328C9.58644 6.68651 10.0004 5.68722 10.0004 4.64526C10.0004 3.60331 9.58644 2.60402 8.84966 1.86725C8.11289 1.13047 7.1136 0.716553 6.07165 0.716553ZM13.5719 5.71673C13.5719 5.33784 13.7224 4.97446 13.9903 4.70654C14.2583 4.43862 14.6216 4.28811 15.0005 4.28811C15.3794 4.28811 15.7428 4.43862 16.0107 4.70654C16.2786 4.97446 16.4292 5.33784 16.4292 5.71673C16.4292 6.09563 16.2786 6.459 16.0107 6.72692C15.7428 6.99484 15.3794 7.14535 15.0005 7.14535C14.6216 7.14535 14.2583 6.99484 13.9903 6.72692C13.7224 6.459 13.5719 6.09563 13.5719 5.71673ZM15.0005 2.85949C14.2427 2.85949 13.516 3.16052 12.9802 3.69635C12.4443 4.23219 12.1433 4.95894 12.1433 5.71673C12.1433 6.47452 12.4443 7.20127 12.9802 7.73711C13.516 8.27295 14.2427 8.57398 15.0005 8.57398C15.7583 8.57398 16.4851 8.27295 17.0209 7.73711C17.5567 7.20127 17.8578 6.47452 17.8578 5.71673C17.8578 4.95894 17.5567 4.23219 17.0209 3.69635C16.4851 3.16052 15.7583 2.85949 15.0005 2.85949ZM0 12.1455C0 11.5772 0.225773 11.0321 0.627651 10.6302C1.02953 10.2284 1.57459 10.0026 2.14293 10.0026H10.0004C10.5687 10.0026 11.1138 10.2284 11.5156 10.6302C11.9175 11.0321 12.1433 11.5772 12.1433 12.1455V12.307C12.1419 12.3736 12.1371 12.4401 12.129 12.5063C12.1147 12.6298 12.0883 12.7977 12.0361 12.9963C11.8989 13.5201 11.6561 14.0104 11.3225 14.437C10.4868 15.5099 8.9146 16.4314 6.07165 16.4314C3.22869 16.4314 1.6572 15.5099 0.820744 14.437C0.486953 14.0105 0.243874 13.5202 0.106432 12.9963C0.0518718 12.7862 0.0169585 12.5714 0.00214295 12.3548C0.00145237 12.3389 0.000976056 12.3229 0.000714259 12.307V12.2905L0 12.2848V12.1455ZM1.42862 12.2727V12.2813C1.43852 12.4014 1.45884 12.5204 1.48934 12.637C1.55363 12.8856 1.68435 13.2213 1.94721 13.5592C2.4508 14.2049 3.55727 15.0028 6.07165 15.0028C8.58602 15.0028 9.6932 14.2049 10.1961 13.5599C10.4096 13.2865 10.5652 12.9725 10.6532 12.637C10.684 12.5204 10.7045 12.4014 10.7147 12.2813L10.7154 12.2727V12.1455C10.7154 11.9561 10.6401 11.7744 10.5062 11.6404C10.3722 11.5065 10.1905 11.4312 10.0011 11.4312H2.14293C1.95349 11.4312 1.7718 11.5065 1.63784 11.6404C1.50388 11.7744 1.42862 11.9561 1.42862 12.1455V12.2727ZM12.484 14.6399C13.1483 14.8656 13.9748 15.0028 15.0005 15.0028C17.287 15.0028 18.5864 14.322 19.2957 13.4849C19.6407 13.0777 19.8171 12.6648 19.9064 12.3477C19.9546 12.1776 19.9854 12.0032 19.9986 11.8269L19.9993 11.8012L20 11.7855V11.7584C20.0001 11.5278 19.9547 11.2994 19.8665 11.0864C19.7783 10.8733 19.649 10.6797 19.486 10.5166C19.3229 10.3536 19.1293 10.2243 18.9162 10.1361C18.7032 10.0479 18.4748 10.0025 18.2442 10.0026H12.3947C12.7519 10.4019 13.0112 10.8905 13.134 11.4312H18.2442C18.4228 11.4312 18.5671 11.5734 18.5714 11.7498C18.5644 11.8209 18.551 11.8911 18.5314 11.9598C18.4871 12.117 18.3957 12.337 18.2049 12.562C17.8435 12.9898 16.9999 13.5742 15.0005 13.5742C14.1684 13.5742 13.5369 13.4727 13.0569 13.3241C12.9298 13.7879 12.7369 14.231 12.484 14.6399Z" fill="#000103" fill-opacity="0.7"/>
</svg>
