<svg width="150" height="27" viewBox="0 0 150 27" fill="none" xmlns="http://www.w3.org/2000/svg">
<path d="M26.4784 13.0154C26.4784 19.9108 20.68 25.5309 13.4892 25.5309C6.29847 25.5309 0.5 19.9108 0.5 13.0154C0.5 6.12005 6.29847 0.5 13.4892 0.5C20.68 0.5 26.4784 6.12005 26.4784 13.0154Z" stroke="#DBDEE7"/>
<ellipse cx="54.4964" cy="13.0154" rx="13.4892" ry="13.0154" fill="#1849C6"/>
<path d="M108.493 13.0154C108.493 19.9108 102.694 25.5309 95.5036 25.5309C88.3129 25.5309 82.5144 19.9108 82.5144 13.0154C82.5144 6.12005 88.3129 0.5 95.5036 0.5C102.694 0.5 108.493 6.12005 108.493 13.0154Z" stroke="#DBDEE7"/>
<path d="M149.5 13.0154C149.5 19.9108 143.702 25.5309 136.511 25.5309C129.32 25.5309 123.522 19.9108 123.522 13.0154C123.522 6.12005 129.32 0.5 136.511 0.5C143.702 0.5 149.5 6.12005 149.5 13.0154Z" stroke="#DBDEE7"/>
</svg>
