<svg width="16" height="17" viewBox="0 0 16 17" fill="none" xmlns="http://www.w3.org/2000/svg">
<path d="M3.25 0.284424C2.38805 0.284424 1.5614 0.626833 0.951903 1.23633C0.34241 1.84582 0 2.67247 0 3.53442V6.53442C4.19176e-09 6.73334 0.0790175 6.9241 0.21967 7.06475C0.360322 7.20541 0.551088 7.28442 0.75 7.28442C0.948912 7.28442 1.13968 7.20541 1.28033 7.06475C1.42098 6.9241 1.5 6.73334 1.5 6.53442V3.53442C1.5 2.56842 2.284 1.78442 3.25 1.78442H6.25C6.44891 1.78442 6.63968 1.70541 6.78033 1.56475C6.92098 1.4241 7 1.23334 7 1.03442C7 0.835511 6.92098 0.644746 6.78033 0.504094C6.63968 0.363441 6.44891 0.284424 6.25 0.284424H3.25ZM9.75 0.284424C9.55109 0.284424 9.36032 0.363441 9.21967 0.504094C9.07902 0.644746 9 0.835511 9 1.03442C9 1.23334 9.07902 1.4241 9.21967 1.56475C9.36032 1.70541 9.55109 1.78442 9.75 1.78442H12.75C13.716 1.78442 14.5 2.56842 14.5 3.53442V6.53442C14.5 6.73334 14.579 6.9241 14.7197 7.06475C14.8603 7.20541 15.0511 7.28442 15.25 7.28442C15.4489 7.28442 15.6397 7.20541 15.7803 7.06475C15.921 6.9241 16 6.73334 16 6.53442V3.53442C16 2.67247 15.6576 1.84582 15.0481 1.23633C14.4386 0.626833 13.612 0.284424 12.75 0.284424H9.75ZM0.75 9.28442C0.948912 9.28442 1.13968 9.36344 1.28033 9.50409C1.42098 9.64475 1.5 9.83551 1.5 10.0344V13.0344C1.5 14.0004 2.284 14.7844 3.25 14.7844H6.25C6.44891 14.7844 6.63968 14.8634 6.78033 15.0041C6.92098 15.1447 7 15.3355 7 15.5344C7 15.7333 6.92098 15.9241 6.78033 16.0648C6.63968 16.2054 6.44891 16.2844 6.25 16.2844H3.25C2.38805 16.2844 1.5614 15.942 0.951903 15.3325C0.34241 14.723 0 13.8964 0 13.0344V10.0344C0 9.83551 0.0790175 9.64475 0.21967 9.50409C0.360322 9.36344 0.551088 9.28442 0.75 9.28442ZM16 10.0344C16 9.83551 15.921 9.64475 15.7803 9.50409C15.6397 9.36344 15.4489 9.28442 15.25 9.28442C15.0511 9.28442 14.8603 9.36344 14.7197 9.50409C14.579 9.64475 14.5 9.83551 14.5 10.0344V13.0344C14.5 13.4986 14.3156 13.9437 13.9874 14.2719C13.6592 14.6 13.2141 14.7844 12.75 14.7844H9.75C9.55109 14.7844 9.36032 14.8634 9.21967 15.0041C9.07902 15.1447 9 15.3355 9 15.5344C9 15.7333 9.07902 15.9241 9.21967 16.0648C9.36032 16.2054 9.55109 16.2844 9.75 16.2844H12.75C13.612 16.2844 14.4386 15.942 15.0481 15.3325C15.6576 14.723 16 13.8964 16 13.0344V10.0344Z" fill="#000103" fill-opacity="0.7"/>
</svg>
