<svg width="20" height="18" viewBox="0 0 20 18" fill="none" xmlns="http://www.w3.org/2000/svg">
<path d="M5 5.68579V2.68579C5 2.15536 5.21071 1.64665 5.58579 1.27158C5.96086 0.896505 6.46957 0.685791 7 0.685791H17C17.5304 0.685791 18.0391 0.896505 18.4142 1.27158C18.7893 1.64665 19 2.15536 19 2.68579V14.6858C19 15.2162 18.7893 15.7249 18.4142 16.1C18.0391 16.4751 17.5304 16.6858 17 16.6858H11M11 16.6858V10.5138C10.9999 9.9834 10.7891 9.47478 10.414 9.09979L7.414 6.09979C7.03894 5.72485 6.53033 5.51422 6 5.51422C5.46967 5.51422 4.96106 5.72485 4.586 6.09979L1.586 9.09979C1.2109 9.47478 1.00011 9.9834 1 10.5138V14.6858C1 15.2162 1.21071 15.7249 1.58579 16.1C1.96086 16.4751 2.46957 16.6858 3 16.6858H6M11 16.6858H6M6 12.6858V16.6858M15.001 4.68579H15M11.001 4.68579H11M15.001 8.68579H15M15.001 12.6858H15" stroke="black" stroke-width="1.2" stroke-linecap="round" stroke-linejoin="round"/>
</svg>
